<svg width="37" height="25" viewBox="0 0 37 25" fill="none" xmlns="http://www.w3.org/2000/svg">
<path d="M37.0003 23.4236V1.65137L24.3828 12.3122L37.0003 23.4236Z" fill="white"/>
<path d="M0 1.19531C0 1.19531 0 1.19531 0 1.27039V23.2678L12.6175 12.1565L0 1.19531Z" fill="white"/>
<path d="M20.8172 12.763L35.8343 0C35.7569 0 35.7569 0 35.7569 0H1.62012L16.2502 12.6879C17.4887 13.8141 19.5013 13.8892 20.8172 12.763Z" fill="white"/>
<path d="M22.1379 14.2644C21.1316 15.0903 19.8157 15.5407 18.4998 15.5407C17.2612 15.5407 15.9453 15.0903 14.8616 14.1894L14.0875 13.5137L1.08301 24.9253C1.16042 25.0004 1.16042 25.0004 1.23782 25.0004H35.7617L22.8346 13.6638L22.1379 14.2644Z" fill="white"/>
</svg>
